<svg xmlns="http://www.w3.org/2000/svg" viewBox="0 0 1108 454" width="1108" height="454">
<rect x="0" y="0" width="1108" height="454" rx="14" ry="14" fill="#16243b"/>
<text text-anchor="middle" dominant-baseline="central" font-family="Helvetica, Arial, sans-serif" font-size="22" font-weight="700" fill="#e9b659"><tspan x="554.0" y="33.0">Layer 0 — QWERTY</tspan></text>
<rect x="30" y="82" width="80" height="80" rx="9" ry="9" fill="#000" fill-opacity="0.30"/>
<rect x="30" y="80" width="80" height="80" rx="9" ry="9" fill="#ede4cc" stroke="#e9b659" stroke-width="2.5"/>
<text text-anchor="middle" dominant-baseline="central" font-family="Helvetica, Arial, sans-serif" font-size="18" font-weight="600" fill="#1a2940"><tspan x="70.0" y="120.0">Tab</tspan></text>
<rect x="118" y="82" width="80" height="80" rx="9" ry="9" fill="#000" fill-opacity="0.30"/>
<rect x="118" y="80" width="80" height="80" rx="9" ry="9" fill="#ede4cc" stroke="#e9b659" stroke-width="2.5"/>
<text text-anchor="middle" dominant-baseline="central" font-family="Helvetica, Arial, sans-serif" font-size="26" font-weight="600" fill="#1a2940"><tspan x="158.0" y="120.0">Q</tspan></text>
<rect x="206" y="82" width="80" height="80" rx="9" ry="9" fill="#000" fill-opacity="0.30"/>
<rect x="206" y="80" width="80" height="80" rx="9" ry="9" fill="#ede4cc" stroke="#e9b659" stroke-width="2.5"/>
<text text-anchor="middle" dominant-baseline="central" font-family="Helvetica, Arial, sans-serif" font-size="26" font-weight="600" fill="#1a2940"><tspan x="246.0" y="120.0">W</tspan></text>
<rect x="294" y="82" width="80" height="80" rx="9" ry="9" fill="#000" fill-opacity="0.30"/>
<rect x="294" y="80" width="80" height="80" rx="9" ry="9" fill="#ede4cc" stroke="#e9b659" stroke-width="2.5"/>
<text text-anchor="middle" dominant-baseline="central" font-family="Helvetica, Arial, sans-serif" font-size="26" font-weight="600" fill="#1a2940"><tspan x="334.0" y="120.0">E</tspan></text>
<rect x="382" y="82" width="80" height="80" rx="9" ry="9" fill="#000" fill-opacity="0.30"/>
<rect x="382" y="80" width="80" height="80" rx="9" ry="9" fill="#ede4cc" stroke="#e9b659" stroke-width="2.5"/>
<text text-anchor="middle" dominant-baseline="central" font-family="Helvetica, Arial, sans-serif" font-size="26" font-weight="600" fill="#1a2940"><tspan x="422.0" y="120.0">R</tspan></text>
<rect x="470" y="82" width="80" height="80" rx="9" ry="9" fill="#000" fill-opacity="0.30"/>
<rect x="470" y="80" width="80" height="80" rx="9" ry="9" fill="#ede4cc" stroke="#e9b659" stroke-width="2.5"/>
<text text-anchor="middle" dominant-baseline="central" font-family="Helvetica, Arial, sans-serif" font-size="26" font-weight="600" fill="#1a2940"><tspan x="510.0" y="120.0">T</tspan></text>
<rect x="558" y="82" width="80" height="80" rx="9" ry="9" fill="#000" fill-opacity="0.30"/>
<rect x="558" y="80" width="80" height="80" rx="9" ry="9" fill="#ede4cc" stroke="#e9b659" stroke-width="2.5"/>
<text text-anchor="middle" dominant-baseline="central" font-family="Helvetica, Arial, sans-serif" font-size="26" font-weight="600" fill="#1a2940"><tspan x="598.0" y="120.0">Y</tspan></text>
<rect x="646" y="82" width="80" height="80" rx="9" ry="9" fill="#000" fill-opacity="0.30"/>
<rect x="646" y="80" width="80" height="80" rx="9" ry="9" fill="#ede4cc" stroke="#e9b659" stroke-width="2.5"/>
<text text-anchor="middle" dominant-baseline="central" font-family="Helvetica, Arial, sans-serif" font-size="26" font-weight="600" fill="#1a2940"><tspan x="686.0" y="120.0">U</tspan></text>
<rect x="734" y="82" width="80" height="80" rx="9" ry="9" fill="#000" fill-opacity="0.30"/>
<rect x="734" y="80" width="80" height="80" rx="9" ry="9" fill="#ede4cc" stroke="#e9b659" stroke-width="2.5"/>
<text text-anchor="middle" dominant-baseline="central" font-family="Helvetica, Arial, sans-serif" font-size="26" font-weight="600" fill="#1a2940"><tspan x="774.0" y="120.0">I</tspan></text>
<rect x="822" y="82" width="80" height="80" rx="9" ry="9" fill="#000" fill-opacity="0.30"/>
<rect x="822" y="80" width="80" height="80" rx="9" ry="9" fill="#ede4cc" stroke="#e9b659" stroke-width="2.5"/>
<text text-anchor="middle" dominant-baseline="central" font-family="Helvetica, Arial, sans-serif" font-size="26" font-weight="600" fill="#1a2940"><tspan x="862.0" y="120.0">O</tspan></text>
<rect x="910" y="82" width="80" height="80" rx="9" ry="9" fill="#000" fill-opacity="0.30"/>
<rect x="910" y="80" width="80" height="80" rx="9" ry="9" fill="#ede4cc" stroke="#e9b659" stroke-width="2.5"/>
<text text-anchor="middle" dominant-baseline="central" font-family="Helvetica, Arial, sans-serif" font-size="26" font-weight="600" fill="#1a2940"><tspan x="950.0" y="120.0">P</tspan></text>
<rect x="998" y="82" width="80" height="80" rx="9" ry="9" fill="#000" fill-opacity="0.30"/>
<rect x="998" y="80" width="80" height="80" rx="9" ry="9" fill="#ede4cc" stroke="#e9b659" stroke-width="2.5"/>
<text text-anchor="middle" dominant-baseline="central" font-family="Helvetica, Arial, sans-serif" font-size="14" font-weight="600" fill="#1a2940"><tspan x="1038.0" y="112.7">Back</tspan><tspan x="1038.0" y="127.4">Space</tspan></text>
<rect x="30" y="170" width="80" height="80" rx="9" ry="9" fill="#000" fill-opacity="0.30"/>
<rect x="30" y="168" width="80" height="80" rx="9" ry="9" fill="#ede4cc" stroke="#e9b659" stroke-width="2.5"/>
<text text-anchor="middle" dominant-baseline="central" font-family="Helvetica, Arial, sans-serif" font-size="18" font-weight="600" fill="#1a2940"><tspan x="70.0" y="208.0">Esc</tspan></text>
<rect x="118" y="170" width="80" height="80" rx="9" ry="9" fill="#000" fill-opacity="0.30"/>
<rect x="118" y="168" width="80" height="80" rx="9" ry="9" fill="#ede4cc" stroke="#e9b659" stroke-width="2.5"/>
<text text-anchor="middle" dominant-baseline="central" font-family="Helvetica, Arial, sans-serif" font-size="26" font-weight="600" fill="#1a2940"><tspan x="158.0" y="208.0">A</tspan></text>
<rect x="206" y="170" width="80" height="80" rx="9" ry="9" fill="#000" fill-opacity="0.30"/>
<rect x="206" y="168" width="80" height="80" rx="9" ry="9" fill="#ede4cc" stroke="#e9b659" stroke-width="2.5"/>
<text text-anchor="middle" dominant-baseline="central" font-family="Helvetica, Arial, sans-serif" font-size="26" font-weight="600" fill="#1a2940"><tspan x="246.0" y="208.0">S</tspan></text>
<rect x="294" y="170" width="80" height="80" rx="9" ry="9" fill="#000" fill-opacity="0.30"/>
<rect x="294" y="168" width="80" height="80" rx="9" ry="9" fill="#ede4cc" stroke="#e9b659" stroke-width="2.5"/>
<text text-anchor="middle" dominant-baseline="central" font-family="Helvetica, Arial, sans-serif" font-size="26" font-weight="600" fill="#1a2940"><tspan x="334.0" y="208.0">D</tspan></text>
<rect x="382" y="170" width="80" height="80" rx="9" ry="9" fill="#000" fill-opacity="0.30"/>
<rect x="382" y="168" width="80" height="80" rx="9" ry="9" fill="#ede4cc" stroke="#e9b659" stroke-width="2.5"/>
<text text-anchor="middle" dominant-baseline="central" font-family="Helvetica, Arial, sans-serif" font-size="26" font-weight="600" fill="#1a2940"><tspan x="422.0" y="208.0">F</tspan></text>
<rect x="470" y="170" width="80" height="80" rx="9" ry="9" fill="#000" fill-opacity="0.30"/>
<rect x="470" y="168" width="80" height="80" rx="9" ry="9" fill="#ede4cc" stroke="#e9b659" stroke-width="2.5"/>
<text text-anchor="middle" dominant-baseline="central" font-family="Helvetica, Arial, sans-serif" font-size="26" font-weight="600" fill="#1a2940"><tspan x="510.0" y="208.0">G</tspan></text>
<rect x="558" y="170" width="80" height="80" rx="9" ry="9" fill="#000" fill-opacity="0.30"/>
<rect x="558" y="168" width="80" height="80" rx="9" ry="9" fill="#ede4cc" stroke="#e9b659" stroke-width="2.5"/>
<text text-anchor="middle" dominant-baseline="central" font-family="Helvetica, Arial, sans-serif" font-size="26" font-weight="600" fill="#1a2940"><tspan x="598.0" y="208.0">H</tspan></text>
<rect x="646" y="170" width="80" height="80" rx="9" ry="9" fill="#000" fill-opacity="0.30"/>
<rect x="646" y="168" width="80" height="80" rx="9" ry="9" fill="#ede4cc" stroke="#e9b659" stroke-width="2.5"/>
<text text-anchor="middle" dominant-baseline="central" font-family="Helvetica, Arial, sans-serif" font-size="26" font-weight="600" fill="#1a2940"><tspan x="686.0" y="208.0">J</tspan></text>
<rect x="734" y="170" width="80" height="80" rx="9" ry="9" fill="#000" fill-opacity="0.30"/>
<rect x="734" y="168" width="80" height="80" rx="9" ry="9" fill="#ede4cc" stroke="#e9b659" stroke-width="2.5"/>
<text text-anchor="middle" dominant-baseline="central" font-family="Helvetica, Arial, sans-serif" font-size="26" font-weight="600" fill="#1a2940"><tspan x="774.0" y="208.0">K</tspan></text>
<rect x="822" y="170" width="80" height="80" rx="9" ry="9" fill="#000" fill-opacity="0.30"/>
<rect x="822" y="168" width="80" height="80" rx="9" ry="9" fill="#ede4cc" stroke="#e9b659" stroke-width="2.5"/>
<text text-anchor="middle" dominant-baseline="central" font-family="Helvetica, Arial, sans-serif" font-size="26" font-weight="600" fill="#1a2940"><tspan x="862.0" y="208.0">L</tspan></text>
<rect x="910" y="170" width="80" height="80" rx="9" ry="9" fill="#000" fill-opacity="0.30"/>
<rect x="910" y="168" width="80" height="80" rx="9" ry="9" fill="#ede4cc" stroke="#e9b659" stroke-width="2.5"/>
<text text-anchor="middle" dominant-baseline="central" font-family="Helvetica, Arial, sans-serif" font-size="14" font-weight="600" fill="#1a2940"><tspan x="950.0" y="200.7">;</tspan><tspan x="950.0" y="215.3">:</tspan></text>
<rect x="998" y="170" width="80" height="80" rx="9" ry="9" fill="#000" fill-opacity="0.30"/>
<rect x="998" y="168" width="80" height="80" rx="9" ry="9" fill="#ede4cc" stroke="#e9b659" stroke-width="2.5"/>
<text text-anchor="middle" dominant-baseline="central" font-family="Helvetica, Arial, sans-serif" font-size="14" font-weight="600" fill="#1a2940"><tspan x="1038.0" y="200.7">'</tspan><tspan x="1038.0" y="215.3">&quot;</tspan></text>
<rect x="30" y="258" width="80" height="80" rx="9" ry="9" fill="#000" fill-opacity="0.30"/>
<rect x="30" y="256" width="80" height="80" rx="9" ry="9" fill="#ede4cc" stroke="#e9b659" stroke-width="2.5"/>
<text text-anchor="middle" dominant-baseline="central" font-family="Helvetica, Arial, sans-serif" font-size="14" font-weight="600" fill="#1a2940"><tspan x="70.0" y="288.6">Left</tspan><tspan x="70.0" y="303.3">Shift</tspan></text>
<rect x="118" y="258" width="80" height="80" rx="9" ry="9" fill="#000" fill-opacity="0.30"/>
<rect x="118" y="256" width="80" height="80" rx="9" ry="9" fill="#ede4cc" stroke="#e9b659" stroke-width="2.5"/>
<text text-anchor="middle" dominant-baseline="central" font-family="Helvetica, Arial, sans-serif" font-size="26" font-weight="600" fill="#1a2940"><tspan x="158.0" y="296.0">Z</tspan></text>
<rect x="206" y="258" width="80" height="80" rx="9" ry="9" fill="#000" fill-opacity="0.30"/>
<rect x="206" y="256" width="80" height="80" rx="9" ry="9" fill="#ede4cc" stroke="#e9b659" stroke-width="2.5"/>
<text text-anchor="middle" dominant-baseline="central" font-family="Helvetica, Arial, sans-serif" font-size="26" font-weight="600" fill="#1a2940"><tspan x="246.0" y="296.0">X</tspan></text>
<rect x="294" y="258" width="80" height="80" rx="9" ry="9" fill="#000" fill-opacity="0.30"/>
<rect x="294" y="256" width="80" height="80" rx="9" ry="9" fill="#ede4cc" stroke="#e9b659" stroke-width="2.5"/>
<text text-anchor="middle" dominant-baseline="central" font-family="Helvetica, Arial, sans-serif" font-size="26" font-weight="600" fill="#1a2940"><tspan x="334.0" y="296.0">C</tspan></text>
<rect x="382" y="258" width="80" height="80" rx="9" ry="9" fill="#000" fill-opacity="0.30"/>
<rect x="382" y="256" width="80" height="80" rx="9" ry="9" fill="#ede4cc" stroke="#e9b659" stroke-width="2.5"/>
<text text-anchor="middle" dominant-baseline="central" font-family="Helvetica, Arial, sans-serif" font-size="26" font-weight="600" fill="#1a2940"><tspan x="422.0" y="296.0">V</tspan></text>
<rect x="470" y="258" width="80" height="80" rx="9" ry="9" fill="#000" fill-opacity="0.30"/>
<rect x="470" y="256" width="80" height="80" rx="9" ry="9" fill="#ede4cc" stroke="#e9b659" stroke-width="2.5"/>
<text text-anchor="middle" dominant-baseline="central" font-family="Helvetica, Arial, sans-serif" font-size="26" font-weight="600" fill="#1a2940"><tspan x="510.0" y="296.0">B</tspan></text>
<rect x="558" y="258" width="80" height="80" rx="9" ry="9" fill="#000" fill-opacity="0.30"/>
<rect x="558" y="256" width="80" height="80" rx="9" ry="9" fill="#ede4cc" stroke="#e9b659" stroke-width="2.5"/>
<text text-anchor="middle" dominant-baseline="central" font-family="Helvetica, Arial, sans-serif" font-size="26" font-weight="600" fill="#1a2940"><tspan x="598.0" y="296.0">N</tspan></text>
<rect x="646" y="258" width="80" height="80" rx="9" ry="9" fill="#000" fill-opacity="0.30"/>
<rect x="646" y="256" width="80" height="80" rx="9" ry="9" fill="#ede4cc" stroke="#e9b659" stroke-width="2.5"/>
<text text-anchor="middle" dominant-baseline="central" font-family="Helvetica, Arial, sans-serif" font-size="26" font-weight="600" fill="#1a2940"><tspan x="686.0" y="296.0">M</tspan></text>
<rect x="734" y="258" width="80" height="80" rx="9" ry="9" fill="#000" fill-opacity="0.30"/>
<rect x="734" y="256" width="80" height="80" rx="9" ry="9" fill="#ede4cc" stroke="#e9b659" stroke-width="2.5"/>
<text text-anchor="middle" dominant-baseline="central" font-family="Helvetica, Arial, sans-serif" font-size="14" font-weight="600" fill="#1a2940"><tspan x="774.0" y="288.6">,</tspan><tspan x="774.0" y="303.3">&lt;</tspan></text>
<rect x="822" y="258" width="80" height="80" rx="9" ry="9" fill="#000" fill-opacity="0.30"/>
<rect x="822" y="256" width="80" height="80" rx="9" ry="9" fill="#ede4cc" stroke="#e9b659" stroke-width="2.5"/>
<text text-anchor="middle" dominant-baseline="central" font-family="Helvetica, Arial, sans-serif" font-size="14" font-weight="600" fill="#1a2940"><tspan x="862.0" y="288.6">.</tspan><tspan x="862.0" y="303.3">&gt;</tspan></text>
<rect x="910" y="258" width="80" height="80" rx="9" ry="9" fill="#000" fill-opacity="0.30"/>
<rect x="910" y="256" width="80" height="80" rx="9" ry="9" fill="#ede4cc" stroke="#e9b659" stroke-width="2.5"/>
<text text-anchor="middle" dominant-baseline="central" font-family="Helvetica, Arial, sans-serif" font-size="14" font-weight="600" fill="#1a2940"><tspan x="950.0" y="288.6">/</tspan><tspan x="950.0" y="303.3">?</tspan></text>
<rect x="998" y="258" width="80" height="80" rx="9" ry="9" fill="#000" fill-opacity="0.30"/>
<rect x="998" y="256" width="80" height="80" rx="9" ry="9" fill="#ede4cc" stroke="#e9b659" stroke-width="2.5"/>
<text text-anchor="middle" dominant-baseline="central" font-family="Helvetica, Arial, sans-serif" font-size="14" font-weight="600" fill="#1a2940"><tspan x="1038.0" y="288.6">Enter</tspan><tspan x="1038.0" y="303.3">↵</tspan></text>
<rect x="30" y="346" width="80" height="80" rx="9" ry="9" fill="#000" fill-opacity="0.30"/>
<rect x="30" y="344" width="80" height="80" rx="9" ry="9" fill="#ede4cc" stroke="#e9b659" stroke-width="2.5"/>
<text text-anchor="middle" dominant-baseline="central" font-family="Helvetica, Arial, sans-serif" font-size="13" font-weight="500" fill="#1a2940"><tspan x="70.0" y="368.0">MO</tspan></text>
<text text-anchor="middle" dominant-baseline="central" font-family="Helvetica, Arial, sans-serif" font-size="30" font-weight="700" fill="#1a2940"><tspan x="70.0" y="397.0">6</tspan></text>
<rect x="118" y="346" width="80" height="80" rx="9" ry="9" fill="#000" fill-opacity="0.30"/>
<rect x="118" y="344" width="80" height="80" rx="9" ry="9" fill="#ede4cc" stroke="#e9b659" stroke-width="2.5"/>
<text text-anchor="middle" dominant-baseline="central" font-family="Helvetica, Arial, sans-serif" font-size="14" font-weight="600" fill="#1a2940"><tspan x="158.0" y="376.6">Left</tspan><tspan x="158.0" y="391.3">Ctrl</tspan></text>
<rect x="206" y="346" width="80" height="80" rx="9" ry="9" fill="#000" fill-opacity="0.30"/>
<rect x="206" y="344" width="80" height="80" rx="9" ry="9" fill="#ede4cc" stroke="#e9b659" stroke-width="2.5"/>
<text text-anchor="middle" dominant-baseline="central" font-family="Helvetica, Arial, sans-serif" font-size="14" font-weight="600" fill="#1a2940"><tspan x="246.0" y="376.6">Left</tspan><tspan x="246.0" y="391.3">Alt</tspan></text>
<rect x="294" y="346" width="80" height="80" rx="9" ry="9" fill="#000" fill-opacity="0.30"/>
<rect x="294" y="344" width="80" height="80" rx="9" ry="9" fill="#ede4cc" stroke="#e9b659" stroke-width="2.5"/>
<g transform="translate(320.0, 370.0) scale(0.280)" fill="#1a2940"><path d="M50 14c-3 0-7 3-9 5-2 2-4 5-3 8 4 0 8-2 10-5 2-2 3-5 2-8z M68 38c-5 0-9 3-11 3-3 0-7-3-12-3-7 0-13 4-16 11-7 14 1 35 8 47 3 6 7 12 13 12 5 0 7-3 14-3 7 0 9 3 14 3 6 0 10-6 13-12 4-7 6-14 6-14 -1 0-12-5-12-18 0-11 9-16 9-16-5-7-12-10-26-10z"/></g>
<rect x="382" y="346" width="80" height="80" rx="9" ry="9" fill="#000" fill-opacity="0.30"/>
<rect x="382" y="344" width="80" height="80" rx="9" ry="9" fill="#ede4cc" stroke="#e9b659" stroke-width="2.5"/>
<text text-anchor="middle" dominant-baseline="central" font-family="Helvetica, Arial, sans-serif" font-size="13" font-weight="500" fill="#1a2940"><tspan x="422.0" y="368.0">MO</tspan></text>
<text text-anchor="middle" dominant-baseline="central" font-family="Helvetica, Arial, sans-serif" font-size="30" font-weight="700" fill="#1a2940"><tspan x="422.0" y="397.0">1</tspan></text>
<rect x="470" y="346" width="80" height="80" rx="9" ry="9" fill="#000" fill-opacity="0.30"/>
<rect x="470" y="344" width="80" height="80" rx="9" ry="9" fill="#ede4cc" stroke="#e9b659" stroke-width="2.5"/>
<text text-anchor="middle" dominant-baseline="central" font-family="Helvetica, Arial, sans-serif" font-size="14" font-weight="600" fill="#1a2940"><tspan x="510.0" y="384.0">Space</tspan></text>
<rect x="558" y="346" width="80" height="80" rx="9" ry="9" fill="#000" fill-opacity="0.30"/>
<rect x="558" y="344" width="80" height="80" rx="9" ry="9" fill="#ede4cc" stroke="#e9b659" stroke-width="2.5"/>
<text text-anchor="middle" dominant-baseline="central" font-family="Helvetica, Arial, sans-serif" font-size="14" font-weight="600" fill="#1a2940"><tspan x="598.0" y="384.0">Space</tspan></text>
<rect x="646" y="346" width="80" height="80" rx="9" ry="9" fill="#000" fill-opacity="0.30"/>
<rect x="646" y="344" width="80" height="80" rx="9" ry="9" fill="#ede4cc" stroke="#e9b659" stroke-width="2.5"/>
<text text-anchor="middle" dominant-baseline="central" font-family="Helvetica, Arial, sans-serif" font-size="13" font-weight="500" fill="#1a2940"><tspan x="686.0" y="368.0">MO</tspan></text>
<text text-anchor="middle" dominant-baseline="central" font-family="Helvetica, Arial, sans-serif" font-size="30" font-weight="700" fill="#1a2940"><tspan x="686.0" y="397.0">2</tspan></text>
<rect x="734" y="346" width="80" height="80" rx="9" ry="9" fill="#000" fill-opacity="0.30"/>
<rect x="734" y="344" width="80" height="80" rx="9" ry="9" fill="#ede4cc" stroke="#e9b659" stroke-width="2.5"/>
<text text-anchor="middle" dominant-baseline="central" font-family="Helvetica, Arial, sans-serif" font-size="13" font-weight="500" fill="#1a2940"><tspan x="774.0" y="368.0">MO</tspan></text>
<text text-anchor="middle" dominant-baseline="central" font-family="Helvetica, Arial, sans-serif" font-size="30" font-weight="700" fill="#1a2940"><tspan x="774.0" y="397.0">3</tspan></text>
<rect x="822" y="344" width="80" height="80" rx="9" ry="9" fill="#1a2a44" stroke="#2a3d5e" stroke-width="1"/>
<rect x="910" y="344" width="80" height="80" rx="9" ry="9" fill="#1a2a44" stroke="#2a3d5e" stroke-width="1"/>
<rect x="998" y="346" width="80" height="80" rx="9" ry="9" fill="#000" fill-opacity="0.30"/>
<rect x="998" y="344" width="80" height="80" rx="9" ry="9" fill="#ede4cc" stroke="#e9b659" stroke-width="2.5"/>
<text text-anchor="middle" dominant-baseline="central" font-family="Helvetica, Arial, sans-serif" font-size="13" font-weight="500" fill="#1a2940"><tspan x="1038.0" y="368.0">MO</tspan></text>
<text text-anchor="middle" dominant-baseline="central" font-family="Helvetica, Arial, sans-serif" font-size="30" font-weight="700" fill="#1a2940"><tspan x="1038.0" y="397.0">7</tspan></text>
</svg>